<svg width="122" height="122" viewBox="0 0 122 122" fill="none" xmlns="http://www.w3.org/2000/svg">
<circle opacity="0.3" r="46" transform="matrix(-1 0 0 1 61 61)" stroke="#D5EBFF" stroke-width="2"/>
<circle opacity="0.1" r="60.5" transform="matrix(-1 0 0 1 61 61)" stroke="white"/>
<circle cx="61" cy="61" r="30" fill="#F87373"/>
<path d="M70.0503 58.6629L57.1116 51.3631C56.689 51.1216 56.2101 50.9964 55.7234 51.0001C55.2367 51.0038 54.7597 51.1364 54.3409 51.3843C53.9329 51.6176 53.5939 51.9548 53.3584 52.3616C53.1229 52.7684 52.9992 53.2303 53 53.7003V68.2999C52.9992 68.7699 53.1229 69.2318 53.3584 69.6386C53.5939 70.0454 53.9329 70.3826 54.3409 70.6159C54.7598 70.8637 55.2368 70.9962 55.7234 70.9999C56.21 71.0036 56.689 70.8785 57.1116 70.6371L70.0503 63.3373C70.4676 63.1061 70.8154 62.7675 71.0576 62.3565C71.2998 61.9455 71.4275 61.4771 71.4275 61.0001C71.4275 60.5231 71.2998 60.0547 71.0576 59.6437C70.8154 59.2327 70.4676 58.894 70.0503 58.6629Z" fill="white"/>
</svg>
