<svg width="28" height="28" viewBox="0 0 28 28" fill="none" xmlns="http://www.w3.org/2000/svg">
<path d="M13.9453 0C6.23771 0 0 6.23705 0 13.9453C0 21.5958 6.18105 28 13.9453 28C21.6261 28 28 21.6722 28 13.9453C28 6.17258 21.5875 0 13.9453 0ZM13.9453 26.3703C7.16051 26.3703 1.62969 20.7904 1.62969 13.9453C1.62969 7.16051 7.16051 1.62969 13.9453 1.62969C20.7904 1.62969 26.3703 7.16051 26.3703 13.9453C26.3703 20.7904 20.7904 26.3703 13.9453 26.3703Z" fill="#F87373"/>
<path d="M15.2143 13.9453L17.9155 11.2442C18.2358 10.9238 18.2358 10.4044 17.9155 10.084C17.5952 9.76366 17.0758 9.76366 16.7554 10.084L13.4742 13.3653C13.1538 13.6856 13.1538 14.205 13.4742 14.5254L16.7554 17.8066C17.0757 18.1269 17.5951 18.127 17.9155 17.8066C18.2358 17.4862 18.2358 16.9669 17.9155 16.6465L15.2143 13.9453Z" fill="#F87373"/>
<path d="M13.9453 3.28125C8.07144 3.28125 3.28125 8.06077 3.28125 13.9453C3.28125 19.849 8.08626 24.7188 13.9453 24.7188C19.8239 24.7188 24.7188 19.8435 24.7188 13.9453C24.7188 8.08965 19.8525 3.28125 13.9453 3.28125ZM20.9227 19.7626L20.4352 19.2751C20.1149 18.9547 19.5955 18.9547 19.2751 19.2751C18.9547 19.5955 18.9547 20.1148 19.2751 20.4352L19.7626 20.9227C18.3707 22.0922 16.6397 22.8629 14.7656 23.0389V22.2578C14.7656 21.8048 14.3983 21.4375 13.9453 21.4375C13.4922 21.4375 13.1249 21.8048 13.1249 22.2578V23.04C11.2581 22.8689 9.55363 22.1204 8.18792 20.9722L8.72484 20.4352C9.0452 20.1149 9.0452 19.5955 8.72484 19.2752C8.40454 18.9548 7.88512 18.9548 7.56476 19.2752L7.0321 19.8078C5.87913 18.4172 5.12745 16.6751 4.95868 14.7656H5.74219C6.19522 14.7656 6.5625 14.3983 6.5625 13.9453C6.5625 13.4923 6.19522 13.125 5.74219 13.125H4.95955C5.1292 11.252 5.87322 9.54231 7.01422 8.1743L7.56481 8.7249C7.88512 9.0452 8.40454 9.04526 8.7249 8.7249C9.04526 8.40454 9.04526 7.88517 8.7249 7.56481L8.1743 7.01422C9.54231 5.87322 11.252 5.1292 13.125 4.95955V5.74219C13.125 6.19522 13.4923 6.5625 13.9453 6.5625C14.3983 6.5625 14.7656 6.19522 14.7656 5.74219V4.95868C16.6751 5.12745 18.4172 5.87912 19.8078 7.03216L19.2752 7.56476C18.7568 8.08314 19.1309 8.96514 19.8552 8.96514C20.0651 8.96514 20.2751 8.88508 20.4352 8.7249L20.9721 8.18798C22.1204 9.55369 22.8689 11.2582 23.04 13.125H22.2578C21.8048 13.125 21.4375 13.4923 21.4375 13.9453C21.4375 14.3983 21.8048 14.7656 22.2578 14.7656H23.039C22.863 16.6397 22.0923 18.3708 20.9227 19.7626Z" fill="#F87373"/>
</svg>
