<svg width="8" height="4" viewBox="0 0 8 4" fill="none" xmlns="http://www.w3.org/2000/svg">
<path d="M0.114444 0.334315L0.348838 0.110943C0.422606 0.0411838 0.520751 0.00275299 0.625643 0.00275299C0.730478 0.00275299 0.828739 0.0411838 0.902507 0.110943L3.57631 2.64154L6.25321 0.108135C6.32686 0.0383758 6.42512 0 6.52995 0C6.63479 0 6.73311 0.0383758 6.80682 0.108135L7.04127 0.330131C7.19393 0.474494 7.19393 0.709649 7.04127 0.854012L3.85411 3.88118C3.78046 3.95089 3.68231 4 3.57655 4H3.57533C3.47043 4 3.37229 3.95083 3.29864 3.88118L0.114444 0.862216C0.0406756 0.792512 0.000184059 0.69682 6.77109e-05 0.597605C6.77109e-05 0.498334 0.0406756 0.403964 0.114444 0.334315Z" fill="#F87373"/>
</svg>
