<svg width="28" height="28" viewBox="0 0 28 28" fill="none" xmlns="http://www.w3.org/2000/svg">
<path d="M13.9492 1C6.79211 1 1 6.7916 1 13.9492C1 21.0533 6.73955 27 13.9492 27C21.0913 27 27 21.1137 27 13.9492C27 6.73168 21.0455 1 13.9492 1ZM13.9492 25.4867C7.64904 25.4867 2.51328 20.3054 2.51328 13.9492C2.51328 7.64904 7.64904 2.51328 13.9492 2.51328C20.3054 2.51328 25.4867 7.64904 25.4867 13.9492C25.4867 20.3054 20.3054 25.4867 13.9492 25.4867Z" fill="#F87373"/>
<path d="M13.9492 5.57031C9.32909 5.57031 5.57031 9.32909 5.57031 13.9492C5.57031 18.5867 9.32137 22.4297 13.9492 22.4297C15.8217 22.4297 17.7159 21.8004 19.1461 20.7031C19.4799 20.447 19.5429 19.9688 19.2868 19.635C19.0307 19.3013 18.5525 19.2383 18.2188 19.4944C17.0493 20.3916 15.4931 20.9164 13.9492 20.9164C10.1691 20.9164 7.09375 17.7853 7.09375 13.9492C7.09375 10.1691 10.1691 7.08359 13.9492 7.08359C17.7853 7.08359 20.9062 10.1691 20.9062 13.9492V14.7109C20.9062 15.551 20.2228 16.2344 19.3828 16.2344C18.5428 16.2344 17.8594 15.551 17.8594 14.7109C17.8594 14.3336 17.8594 11.3003 17.8594 10.9023C17.8594 10.4817 17.5183 10.1406 17.0977 10.1406C16.677 10.1406 16.3359 10.4817 16.3359 10.9023V10.9506C15.6481 10.4261 14.816 10.1406 13.9492 10.1406C11.8492 10.1406 10.1406 11.8492 10.1406 13.9492C10.1406 16.0493 11.8492 17.7578 13.9492 17.7578C15.0879 17.7578 16.1358 17.2692 16.8811 16.447C17.4319 17.2384 18.3476 17.7578 19.3828 17.7578C21.0629 17.7578 22.4297 16.391 22.4297 14.7109V13.9492C22.4297 9.31523 18.581 5.57031 13.9492 5.57031ZM13.9492 16.2445C12.6892 16.2445 11.6641 15.2093 11.6641 13.9492C11.6641 12.6892 12.6892 11.6539 13.9492 11.6539C15.243 11.6539 16.3359 12.7105 16.3359 13.9492C16.3359 15.1879 15.243 16.2445 13.9492 16.2445Z" fill="#F87373"/>
</svg>
