<svg width="36" height="36" viewBox="0 0 36 36" fill="none" xmlns="http://www.w3.org/2000/svg">
<path d="M14.2903 15.9117H11.2132C10.8447 15.9117 10.4947 15.9117 10.1609 15.9417C10.5097 18.0092 12.0598 23.3293 18.7465 23.4055C18.8563 23.3813 18.9671 23.3836 19.0746 23.4148C20.1869 23.4125 25.7844 22.9759 27.1404 16.1496C26.4589 15.9868 25.6885 15.9117 24.8164 15.9117H21.588C24.1973 14.5499 25.9842 11.8483 25.9842 8.71817C25.9842 8.46176 25.9715 8.19379 25.9484 7.94546H21.3986C22.065 7.25128 22.5224 6.35382 22.6622 5.35819H25.2611C24.471 3.63142 23.0907 2.23383 21.3766 1.42415C20.5219 0.545175 19.3298 0 18.0108 0C16.7529 0 15.6094 0.497818 14.765 1.30634C12.9285 2.09407 11.4453 3.54479 10.616 5.35934H13.3604C13.5014 6.35498 13.9576 7.25359 14.6252 7.94661H9.92643C9.90333 8.19494 9.89062 8.46291 9.89062 8.71933C9.89063 11.8483 11.6787 14.5511 14.2903 15.9117ZM18.0108 1.3098C19.8773 1.3098 21.3963 2.82867 21.3963 4.69636C21.3963 6.56289 19.8773 8.0806 18.0108 8.0806C16.143 8.0806 14.6241 6.56404 14.6241 4.69636C14.6241 2.82752 16.143 1.3098 18.0108 1.3098Z" fill="#F87373"/>
<path d="M32.2876 23.2901C32.2876 23.2901 32.5383 18.4008 28.4239 16.5643C26.8311 24.5421 19.9018 25.0238 18.9697 25.0353C18.9454 25.1104 18.9304 25.1993 18.9269 25.2917C18.9154 25.8554 19.4005 26.575 20.2968 27.32C21.8885 28.6448 22.2027 30.5656 21.0973 32.2046C20.2368 33.4821 18.6208 34.3714 16.6422 34.3714C15.6893 34.3714 14.6532 34.1647 13.5767 33.6969C13.2475 34.0596 12.7727 34.2883 12.246 34.2883C11.2538 34.2883 10.4476 33.4855 10.4476 32.4899C10.4476 31.5 11.2527 30.6938 12.246 30.6938C13.2301 30.6938 14.0306 31.4873 14.0421 32.4668C16.7208 33.6542 19.0401 32.9138 20.0104 31.4723C20.7346 30.3935 20.529 29.22 19.4571 28.3272C18.1992 27.2784 17.5801 26.2343 17.6182 25.2248C17.6205 25.1393 17.6298 25.0561 17.6413 24.9776C10.8368 24.3308 9.21859 18.3454 8.85358 16.1393C3.65809 17.396 3.69967 22.7865 3.69043 23.2889L3.69389 35.9989H32.3107L32.2876 23.2901Z" fill="#F87373"/>
<path d="M18.0107 6.25905C18.8745 6.25905 19.5747 5.55886 19.5747 4.69514C19.5747 3.83141 18.8745 3.13123 18.0107 3.13123C17.147 3.13123 16.4468 3.83141 16.4468 4.69514C16.4468 5.55886 17.147 6.25905 18.0107 6.25905Z" fill="#F87373"/>
</svg>
