<svg width="20" height="22" viewBox="0 0 20 22" fill="none" xmlns="http://www.w3.org/2000/svg">
<g opacity="0.6">
<path d="M14.1904 0.734375H5.80969C2.60621 0.734375 0 3.4602 0 6.81071V15.576C0 18.9265 2.60621 21.6523 5.80969 21.6523H14.1903C17.3938 21.6523 20 18.9265 20 15.576V6.81071C20 3.4602 17.3938 0.734375 14.1904 0.734375ZM18.4375 15.576C18.4375 18.0254 16.5322 20.0181 14.1904 20.0181H5.80969C3.46777 20.0181 1.5625 18.0254 1.5625 15.576V6.81071C1.5625 4.36131 3.46777 2.36859 5.80969 2.36859H14.1903C16.5322 2.36859 18.4375 4.36131 18.4375 6.81071V15.576Z" fill="#192138"/>
<path d="M10 5.5553C7.02758 5.5553 4.60938 8.08449 4.60938 11.1933C4.60938 14.3022 7.02758 16.8314 10 16.8314C12.9724 16.8314 15.3906 14.3022 15.3906 11.1933C15.3906 8.08449 12.9724 5.5553 10 5.5553ZM10 15.1972C7.88918 15.1972 6.17188 13.401 6.17188 11.1933C6.17188 8.98564 7.88918 7.18951 10 7.18951C12.1108 7.18951 13.8281 8.98564 13.8281 11.1933C13.8281 13.401 12.1108 15.1972 10 15.1972Z" fill="#192138"/>
<path d="M15.4688 6.29071C15.9002 6.29071 16.25 5.92488 16.25 5.4736C16.25 5.02233 15.9002 4.65649 15.4688 4.65649C15.0373 4.65649 14.6875 5.02233 14.6875 5.4736C14.6875 5.92488 15.0373 6.29071 15.4688 6.29071Z" fill="#192138"/>
</g>
</svg>
