<svg width="26" height="26" viewBox="0 0 26 26" fill="none" xmlns="http://www.w3.org/2000/svg">
<g clip-path="url(#clip0)">
<path d="M25.3315 19.1767L22.0994 15.9445C21.2083 15.0535 19.7582 15.0535 18.8672 15.9445L17.398 17.4137C16.7229 18.0888 15.6244 18.0886 14.9496 17.4139L8.58162 11.0405C7.90496 10.3639 7.90486 9.26866 8.58162 8.5919C8.81826 8.35526 9.49777 7.67575 10.0508 7.12274C10.938 6.23559 10.9504 4.7901 10.0499 3.88975L6.8186 0.668587C5.92748 -0.222473 4.47752 -0.222473 3.5888 0.666251C2.92377 1.32549 2.70927 1.53817 2.41108 1.83376C-0.802365 5.04716 -0.802365 10.2758 2.41093 13.489L12.5008 23.5842C15.7217 26.8052 20.9349 26.8054 24.1562 23.5842L25.3315 22.4088C26.2227 21.5177 26.2227 20.0678 25.3315 19.1767ZM4.66384 1.74596C4.96086 1.44894 5.4441 1.44889 5.74208 1.74678L8.9734 4.96794C9.27113 5.26567 9.27113 5.74753 8.9734 6.04531L8.43466 6.584L4.12789 2.27724L4.66384 1.74596ZM13.5784 22.5069L3.48846 12.4117C1.0023 9.92557 0.86565 6.02175 3.06819 3.37234L7.36246 7.66661C6.2341 8.94574 6.28113 10.8949 7.50399 12.1177L13.8718 18.4909C13.8718 18.4909 13.8719 18.491 13.872 18.4911C15.0935 19.7127 17.0426 19.7627 18.3233 18.6328L22.6176 22.9272C19.9767 25.1259 16.0816 25.0102 13.5784 22.5069ZM24.2542 21.3315L23.7155 21.8702L19.4059 17.5606L19.9446 17.0219C20.2416 16.7249 20.7249 16.7248 21.022 17.0219L24.2542 20.2541C24.5512 20.5512 24.5512 21.0345 24.2542 21.3315Z" fill="#F87373"/>
</g>
<defs>
<clipPath id="clip0">
<rect width="26" height="26" fill="white"/>
</clipPath>
</defs>
</svg>
