<svg width="14" height="18" viewBox="0 0 14 18" fill="none" xmlns="http://www.w3.org/2000/svg">
<path d="M7.00012 0C10.5947 0 13.519 2.92437 13.519 6.51888C13.519 10.9798 7.68525 17.5287 7.43687 17.8053C7.20357 18.0651 6.79625 18.0646 6.56338 17.8053C6.315 17.5287 0.481207 10.9798 0.481207 6.51888C0.481277 2.92437 3.40561 0 7.00012 0ZM7.00012 9.79871C8.80863 9.79871 10.2799 8.32739 10.2799 6.51888C10.2799 4.71037 8.8086 3.23909 7.00012 3.23909C5.19165 3.23909 3.72036 4.71041 3.72036 6.51892C3.72036 8.32743 5.19165 9.79871 7.00012 9.79871Z" fill="#F87373"/>
</svg>
