<svg width="16" height="16" viewBox="0 0 16 16" fill="none" xmlns="http://www.w3.org/2000/svg">
<path d="M16 9.52603V6.47397C16 6.24421 15.8138 6.05778 15.5838 6.05778H9.94225V0.416241C9.94225 0.186164 9.75581 4.76837e-05 9.52606 4.76837e-05H6.47399C6.24437 4.76837e-05 6.05779 0.18621 6.05779 0.416241V6.05778H0.416193C0.186253 6.05778 0 6.24421 0 6.47397V9.52603C0 9.75583 0.186253 9.94222 0.416193 9.94222H6.05779V15.5838C6.05779 15.8138 6.24432 16 6.47399 16H9.52606C9.75581 16 9.94225 15.8138 9.94225 15.5838V9.94222H15.5838C15.8139 9.94222 16 9.75583 16 9.52603Z" fill="#F87373"/>
</svg>
