<svg width="34" height="34" viewBox="0 0 34 34" fill="none" xmlns="http://www.w3.org/2000/svg">
<path d="M0 17C0 7.61116 7.61116 0 17 0C26.3888 0 34 7.61116 34 17C34 26.3888 26.3888 34 17 34C7.61116 34 0 26.3888 0 17Z" fill="#E8F4FF"/>
<path d="M16.9989 21.836C16.7281 21.836 16.4573 21.7326 16.2508 21.5262L9.75335 15.0287C9.34003 14.6154 9.34003 13.9452 9.75335 13.5321C10.1665 13.1189 10.8365 13.1189 11.2499 13.5321L16.9989 19.2814L22.7479 13.5323C23.1612 13.1191 23.8312 13.1191 24.2443 13.5323C24.6578 13.9455 24.6578 14.6156 24.2443 15.0289L17.747 21.5264C17.5404 21.7328 17.2696 21.836 16.9989 21.836Z" fill="#F87373"/>
</svg>
